<svg width="426" height="428" xmlns="http://www.w3.org/2000/svg" xmlns:xlink="http://www.w3.org/1999/xlink" xml:space="preserve" overflow="hidden"><g transform="translate(-764 -136)"><g><g><g><g><path d="M1153.24 489.921 1163.51 500.18 1150.96 512.729 1138.12 499.896 1138.12 500.074 1119.94 500.074 1128.01 514.096 1147.18 519.483 1142.38 536.576 1128.68 532.716 1124.92 546.738 1107.78 542.15 1112.83 523.282 1103.9 507.786 1095.12 522.962 1100.04 542.248 1082.84 546.641 1079.33 532.849 1065.31 536.603 1060.71 519.457 1079.56 514.416 1087.86 500.074 1069.82 500.074 1056.75 512.809 1044.35 500.1 1054.54 490.169 1044.28 479.901 1056.83 467.351 1071.79 482.324 1089.19 482.324 1079.74 465.985 1060.61 460.598 1065.42 443.513 1079.1 447.365 1082.86 433.342 1100.01 437.94 1094.95 456.826 1103.9 472.304 1112.66 457.11 1107.75 437.833 1124.95 433.449 1128.46 447.241 1142.49 443.487 1147.08 460.624 1128.2 465.692 1118.6 482.324 1135.63 482.324 1151.04 467.272 1163.43 479.981 1153.24 489.921ZM1026.3 489.921 1036.57 500.18 1024.01 512.729 1011.36 500.074 992.996 500.074 1001.08 514.096 1020.24 519.483 1015.44 536.576 1001.75 532.716 997.984 546.738 980.838 542.15 985.896 523.299 976.95 507.786 968.173 522.953 973.09 542.256 955.899 546.632 952.384 532.849 938.362 536.603 933.773 519.457 952.624 514.416 960.913 500.074 942.879 500.074 929.806 512.809 917.417 500.1 927.605 490.169 917.337 479.901 929.886 467.351 944.858 482.324 962.244 482.324 952.793 465.976 933.667 460.598 938.468 443.513 952.171 447.365 955.925 433.342 973.063 437.94 968.004 456.835 976.95 472.304 985.719 457.101 980.811 437.833 998.011 433.449 1001.52 447.232 1015.54 443.487 1020.14 460.624 1001.27 465.692 991.665 482.324 1008.69 482.324 1024.09 467.272 1036.49 479.981 1026.3 489.921ZM967.099 172.497C1059.51 172.497 1124.62 201.137 1125.83 217.041L1125.61 218.745C1125.39 219.553 1124.95 220.369 1124.44 221.203 1124.32 221.407 1124.26 221.603 1124.12 221.807 1123.55 222.623 1122.77 223.458 1121.93 224.283 1121.7 224.514 1121.56 224.727 1121.32 224.949 1120.41 225.783 1119.3 226.626 1118.12 227.478 1117.81 227.7 1117.57 227.922 1117.25 228.144 1115.99 229.013 1114.51 229.874 1112.99 230.744 1112.62 230.939 1112.34 231.152 1111.97 231.347 1110.28 232.262 1108.41 233.167 1106.45 234.072 1106.12 234.214 1105.84 234.374 1105.51 234.534 1103.34 235.501 1100.97 236.459 1098.48 237.418 1098.29 237.498 1098.12 237.56 1097.93 237.64 1070.57 247.953 1024.68 256.561 967.135 256.561 892.309 256.561 837.125 241.989 816.836 228.037 816.828 228.028 816.819 228.01 816.801 228.002 815.283 226.963 813.97 225.925 812.852 224.895 812.701 224.753 812.603 224.611 812.461 224.469 811.529 223.573 810.713 222.677 810.1 221.798 809.932 221.558 809.861 221.319 809.71 221.07 809.239 220.298 808.822 219.535 808.618 218.789L808.396 217.041C809.594 201.137 874.701 172.497 967.099 172.497ZM1147.27 371.688C1144.7 372.167 1138.09 372.424 1123.28 368.812L1125.24 354.275C1140.61 363.62 1145.7 369.247 1147.27 371.688ZM969.495 313.69 978.37 313.699 969.504 313.707C969.495 313.707 969.495 313.699 969.495 313.69ZM846.381 500.074C846.381 499.674 846.355 499.284 846.301 498.893L812.292 245.965C814.334 247.154 816.526 248.308 818.816 249.426 820.2 250.1 821.682 250.739 823.138 251.378 824.442 251.964 825.774 252.541 827.149 253.1 828.8 253.775 830.495 254.431 832.226 255.07 833.486 255.541 834.782 255.976 836.077 256.419 842.796 258.727 850.047 260.812 857.768 262.685 858.78 262.925 859.8 263.164 860.83 263.413 863.43 264.007 866.048 264.584 868.729 265.135 869.43 265.277 870.149 265.41 870.85 265.552 879.947 267.353 889.478 268.889 899.347 270.131 899.915 270.202 900.492 270.282 901.069 270.362 914.976 272.066 929.398 273.229 943.935 273.823 944.379 273.841 944.814 273.859 945.258 273.876 952.544 274.16 959.839 274.356 967.099 274.356 974.288 274.356 981.503 274.16 988.727 273.885 989.366 273.859 990.005 273.832 990.662 273.805 1001.18 273.371 1011.65 272.643 1021.91 271.604 1022.41 271.56 1022.91 271.525 1023.4 271.471 1026.47 271.152 1029.51 270.806 1032.53 270.433 1033.62 270.3 1034.69 270.158 1035.76 270.025 1038.71 269.643 1041.65 269.253 1044.53 268.827 1044.66 268.809 1044.77 268.782 1044.9 268.764 1050.72 267.895 1056.39 266.91 1061.92 265.836 1063.29 265.569 1064.68 265.303 1066.03 265.028 1068.32 264.549 1070.55 264.07 1072.77 263.555 1074.34 263.2 1075.89 262.818 1077.42 262.445 1079.49 261.94 1081.56 261.443 1083.55 260.892 1086.47 260.111 1089.29 259.304 1092.03 258.452 1093.83 257.893 1095.55 257.307 1097.28 256.73 1099 256.144 1100.69 255.558 1102.35 254.946 1103.85 254.396 1105.31 253.819 1106.74 253.251 1108.43 252.559 1110.06 251.858 1111.66 251.139 1112.86 250.597 1114.1 250.083 1115.24 249.515 1117.57 248.379 1119.81 247.198 1121.91 245.991L1106.03 363.931C1065.57 351.204 1011.63 326.647 987.103 315.119 987.139 314.639 987.245 314.178 987.245 313.699 987.245 303.909 979.276 295.949 969.495 295.949 959.706 295.949 951.745 303.909 951.745 313.699 951.745 323.479 959.706 331.449 969.495 331.449 972.078 331.449 974.519 330.854 976.737 329.86 1004.25 342.88 1061.09 368.795 1103.62 381.761L1098.63 418.903 1116.22 421.299 1120.89 386.509C1129.97 388.648 1137.44 389.722 1143.52 389.722 1152.31 389.722 1158.23 387.476 1162 382.986 1165.11 379.285 1166.33 374.634 1165.45 369.877 1163.53 359.644 1151.76 348.844 1127.81 335.203L1142.92 222.863C1142.97 222.606 1143.05 222.348 1143.07 222.082L1143.52 218.638C1143.57 218.257 1143.6 217.866 1143.6 217.485 1143.6 180.52 1050.59 154.747 967.099 154.747 883.63 154.747 790.629 180.52 790.629 217.485 790.629 217.866 790.655 218.257 790.7 218.638L791.152 222.082C791.161 222.188 791.197 222.295 791.214 222.393L828.64 500.757C829.501 525.802 877.985 536.816 906.989 541.174L909.625 523.619C861.362 516.377 846.381 503.819 846.381 500.074Z" fill="#7AA116" fill-rule="evenodd" fill-opacity="1"/></g></g></g></g></g></svg>