<svg width="428" height="427" xmlns="http://www.w3.org/2000/svg" xmlns:xlink="http://www.w3.org/1999/xlink" xml:space="preserve" overflow="hidden"><g transform="translate(-356 -125)"><g><g><g><g><path d="M383.089 337.97 398.141 353.031 385.592 365.58 366.147 346.126 337.995 346.126 352.533 371.34 378.217 378.555 373.416 395.648 353.287 389.977 347.767 410.55 330.62 405.952 337.419 380.65 323.148 355.906 309.107 380.179 315.693 406.059 298.502 410.443 293.336 390.164 272.755 395.675 268.167 378.529 293.47 371.757 308.3 346.126 280.636 346.126 260.605 365.66 248.216 352.951 263.197 338.343 248.136 323.291 260.685 310.741 278.329 328.376 307.253 328.376 293.718 304.973 268.061 297.757 272.862 280.664 293.008 286.335 298.528 265.763 315.666 270.36 308.868 295.725 323.148 320.415 337.17 296.089 330.594 270.254 347.785 265.869 352.95 286.149 373.522 280.637 378.111 297.784 352.755 304.582 339.043 328.376 367.505 328.376 385.672 310.661 398.062 323.362 383.089 337.97ZM202.962 35.5009C295.289 35.5009 360.343 64.1139 361.559 79.9913L361.337 81.7396C361.133 82.4585 360.716 83.2129 360.281 83.9584 360.112 84.2335 360.023 84.5086 359.828 84.8015 359.322 85.5204 358.612 86.2481 357.902 86.9759 357.591 87.2954 357.37 87.6149 357.006 87.9433 356.234 88.6533 355.249 89.3633 354.299 90.0821 353.82 90.4371 353.429 90.7833 352.914 91.1383 351.867 91.8483 350.642 92.5583 349.409 93.2683 348.805 93.6321 348.264 93.9871 347.607 94.3421 346.276 95.0699 344.741 95.7888 343.223 96.5076 342.513 96.8449 341.874 97.1821 341.12 97.5194 339.424 98.2738 337.552 99.0193 335.661 99.7648 334.934 100.058 334.277 100.359 333.514 100.635 331.348 101.451 329.005 102.241 326.618 103.031 326.005 103.235 325.455 103.439 324.834 103.652 322.038 104.531 319.065 105.4 315.986 106.252 315.675 106.332 315.418 106.421 315.107 106.51 287.532 113.983 248.997 119.485 203.007 119.485 128.261 119.485 73.1566 104.93 52.8595 91.0051 52.7708 90.943 52.7086 90.8809 52.6287 90.8188 51.1999 89.8248 49.9307 88.8396 48.8746 87.8545 48.6705 87.677 48.5462 87.4906 48.3687 87.322 47.4901 86.4611 46.7003 85.6003 46.1056 84.766 45.9281 84.4909 45.8394 84.2335 45.6796 83.9673 45.2359 83.2218 44.8276 82.4763 44.6146 81.7485L44.3927 79.9913C45.6086 64.1139 110.654 35.5009 202.962 35.5009ZM383.018 234.505C380.427 234.993 373.868 235.268 359.065 231.647L361.008 217.137C376.451 226.509 381.483 232.056 383.018 234.505ZM205.163 177.492 214.038 177.501 205.172 177.51C205.163 177.51 205.163 177.501 205.163 177.492ZM203.007 390.501C127.933 390.501 82.3422 371.26 82.3422 362.802 82.3422 362.403 82.3156 362.012 82.2624 361.622L48.2889 108.906C50.3567 110.113 52.5489 111.267 54.8564 112.394 56.1433 113.024 57.5366 113.619 58.8945 114.222 60.3145 114.843 61.7523 115.482 63.2432 116.086 64.823 116.716 66.4205 117.346 68.0713 117.959 69.4646 118.473 70.9201 118.97 72.3756 119.467 76.0854 120.728 79.9549 121.935 83.993 123.062 84.8184 123.301 85.5994 123.55 86.4336 123.772 88.6346 124.366 90.9155 124.917 93.2052 125.476 94.501 125.795 95.8056 126.115 97.128 126.416 99.5065 126.967 101.903 127.481 104.361 127.987 105.47 128.218 106.598 128.431 107.716 128.644 116.289 130.33 125.235 131.768 134.483 132.948 135.521 133.082 136.56 133.224 137.607 133.348 140.615 133.712 143.642 134.058 146.686 134.386 147.316 134.439 147.937 134.493 148.559 134.555 158.543 135.549 168.705 136.259 178.929 136.703 179.932 136.747 180.944 136.791 181.946 136.827 185.15 136.951 188.345 137.049 191.549 137.111 191.984 137.12 192.401 137.12 192.836 137.129 196.208 137.191 199.59 137.271 202.962 137.271 206.202 137.271 209.468 137.191 212.725 137.137 213.337 137.12 213.941 137.12 214.571 137.111 217.615 137.049 220.659 136.951 223.721 136.836 224.972 136.791 226.215 136.738 227.466 136.685 230.466 136.552 233.448 136.41 236.43 136.241L238.711 136.081C244.435 135.717 250.106 135.256 255.724 134.715 257.091 134.59 258.44 134.466 259.789 134.333 262.416 134.049 265.016 133.747 267.608 133.437 269.259 133.241 270.883 133.028 272.516 132.824 275.01 132.496 277.495 132.167 279.935 131.812 281.755 131.537 283.521 131.236 285.305 130.952 289.121 130.339 292.857 129.682 296.531 128.981 298.448 128.617 300.357 128.254 302.229 127.863 304.217 127.446 306.17 127.02 308.113 126.585 310.066 126.141 311.983 125.671 313.891 125.201 315.63 124.775 317.397 124.349 319.092 123.896 322.331 123.026 325.491 122.121 328.544 121.162 329.902 120.736 331.171 120.284 332.502 119.84 334.49 119.174 336.451 118.5 338.342 117.79 339.682 117.293 341.004 116.778 342.282 116.272 344.19 115.5 346.01 114.71 347.793 113.903 348.832 113.432 349.897 112.98 350.882 112.509 353.26 111.356 355.533 110.166 357.645 108.933L341.803 226.766C301.333 214.048 247.346 189.456 222.869 177.954 222.869 177.794 222.913 177.661 222.913 177.501 222.913 167.712 214.952 159.751 205.163 159.751 195.383 159.751 187.413 167.712 187.413 177.501 187.413 187.281 195.383 195.251 205.163 195.251 208.154 195.251 210.941 194.434 213.417 193.121 241.223 206.256 297.348 231.78 339.407 244.596L338.643 250.258 356.242 252.637 356.677 249.344C365.73 251.465 373.176 252.539 379.238 252.539 388.033 252.539 393.952 250.303 397.724 245.803 400.831 242.111 402.055 237.469 401.159 232.721 399.251 222.506 387.491 211.705 363.573 198.082L378.687 85.6269C378.723 85.4316 378.776 85.2275 378.803 85.0323L379.246 81.5888C379.3 81.2071 379.326 80.8166 379.326 80.435 379.326 43.4884 286.387 17.7509 202.962 17.7509 119.564 17.7509 26.625 43.4884 26.625 80.435 26.625 80.8166 26.6516 81.2071 26.7049 81.5888L27.1575 85.0323 27.2019 85.3163 64.6011 363.485C65.7637 396.083 149.863 408.251 203.007 408.251 221.023 408.251 239.11 407.106 256.78 404.843L254.526 387.235C237.602 389.4 220.269 390.501 203.007 390.501Z" fill="#7AA116" fill-rule="evenodd" fill-opacity="1" transform="matrix(1.00235 0 0 1 356 126)"/></g></g></g></g></g></svg>