<svg width="426" height="426" xmlns="http://www.w3.org/2000/svg" xmlns:xlink="http://www.w3.org/1999/xlink" xml:space="preserve" overflow="hidden"><g transform="translate(-848 -8)"><g><path d="M920.528 195.52C923.111 195.52 925.56 196.638 927.255 198.6 928.933 200.552 929.687 203.144 929.305 205.699 927.104 220.459 924.912 236.034 923.173 249.32 928.799 240.055 935.056 229.582 940.959 219.553L967.175 168.886 946.417 168.895C943.621 168.895 940.985 167.572 939.299 165.327 937.63 163.091 937.107 160.189 937.906 157.499L955.567 97.8949 897.045 97.8949 883.812 195.52 920.528 195.52ZM911.041 293.145C908.458 293.145 905.911 291.973 904.216 290.012 901.189 286.497 899.734 284.82 910.242 213.27L881.522 213.27C877.174 213.27 872.505 211.158 869.621 207.892 866.754 204.679 865.37 200.339 865.84 196.017L879.623 94.6555C880.457 86.8988 887.655 80.1449 895.305 80.1449L958.336 80.1449C963.439 80.1449 968.231 82.6476 971.169 86.8455 974.062 90.999 974.79 96.3329 973.122 101.125L958.3 151.145 971.719 151.145C975.962 150.825 980.497 152.796 983.479 156.275 986.478 159.754 987.614 164.493 986.603 169.268 986.443 170.04 986.168 170.794 985.804 171.504L956.481 228.144C918.221 293.145 917.271 293.145 911.041 293.145ZM1254.82 331.361 1242.43 318.652 1223.08 337.52 1195.14 337.52 1209.52 312.563 1234.87 305.774 1230.27 288.636 1209.71 294.139 1204.55 273.868 1187.35 278.244 1193.92 304.088 1179.9 328.414 1165.62 303.724 1172.42 278.35 1155.27 273.762 1149.76 294.325 1129.62 288.663 1124.82 305.747 1150.46 312.963 1164.67 337.52 1136.23 337.52 1117.45 318.732 1104.89 331.281 1119.95 346.342 1104.97 360.95 1117.37 373.65 1136.21 355.27 1164.39 355.27 1150.23 379.747 1124.92 386.528 1129.52 403.674 1150.08 398.163 1155.25 418.433 1172.45 414.058 1165.86 388.169 1179.9 363.896 1194.16 388.622 1187.37 413.951 1204.52 418.54 1210.03 397.976 1230.18 403.639 1234.98 386.554 1209.29 379.33 1195.41 355.27 1224.04 355.27 1242.35 373.57 1254.9 361.021 1239.84 345.969 1254.82 331.361ZM1217.24 224.807 1214.65 239.354C1230.24 243.258 1237.08 243.001 1239.74 242.504 1238.15 240.046 1232.98 234.33 1217.24 224.807ZM921.114 70.054 912.94 54.3097C946.843 36.6929 1003.09 25.75 1059.72 25.75 1143.14 25.75 1236.09 51.4875 1236.09 88.4341 1236.09 88.8246 1236.06 89.2151 1236.01 89.6056L1235.55 93.0491C1235.52 93.2533 1235.47 93.4485 1235.43 93.6526L1220.32 206.063C1244.23 219.686 1256 230.487 1257.92 240.711 1258.8 245.46 1257.58 250.11 1254.48 253.802 1250.7 258.302 1244.79 260.538 1236.01 260.538 1227.86 260.547 1217.25 258.612 1203.59 254.778 1161.41 243.037 1101.19 215.746 1071.33 201.661 1068.61 203.365 1065.41 204.395 1061.98 204.395 1052.19 204.395 1044.23 196.434 1044.23 186.645 1044.23 176.856 1052.19 168.895 1061.98 168.895 1071.53 168.895 1079.28 176.492 1079.66 185.962 1103.93 197.375 1157.13 221.604 1197.51 234.419L1201.98 209.267 1214.4 116.887C1182.32 135.578 1119.52 145.261 1059.72 145.261 1034.35 145.261 1008.58 143.477 985.183 140.096L987.712 122.532C1010.29 125.789 1035.19 127.511 1059.72 127.511 1150.94 127.511 1212.92 105.847 1218.04 90.0583L1218.32 87.9726C1217.09 72.0953 1152.04 43.5 1059.72 43.5 1006.58 43.5 952.177 53.9192 921.114 70.054ZM1111.28 395.225 1113.53 412.833C1095.84 415.096 1077.75 416.25 1059.76 416.25 1006.62 416.25 922.525 404.082 921.362 371.484L912.762 307.531 930.353 305.162 939.024 369.612C939.077 370.011 939.104 370.402 939.104 370.801 939.104 379.259 984.686 398.5 1059.76 398.5 1076.99 398.5 1094.33 397.4 1111.28 395.225Z" fill="#7AA116" fill-rule="evenodd" fill-opacity="1"/></g></g></svg>