<svg width="426" height="428" xmlns="http://www.w3.org/2000/svg" xmlns:xlink="http://www.w3.org/1999/xlink" xml:space="preserve" overflow="hidden"><g transform="matrix(1 0 0 1 0 -208)"><g><g><path d="M342.771 313.476C342.771 322.058 348.416 325.182 360.264 328.59 361.444 328.927 362.527 329.238 363.45 329.539 364.231 329.788 365.127 330.045 366.095 330.32 375.174 332.93 396.438 339.036 396.438 362.492 396.438 378.955 383.596 391.088 365.429 392.765L365.429 408.252 347.679 408.252 347.679 390.99C343.872 389.774 340.331 388.07 337.269 385.86 329.37 380.18 325.021 371.749 325.021 362.137L342.771 362.137C342.771 372.592 354.815 375.352 361.187 375.352 367.692 375.352 378.688 372.645 378.688 362.492 378.688 353.919 373.044 350.786 361.196 347.378 360.015 347.041 358.933 346.73 358.01 346.437 357.229 346.189 356.332 345.923 355.365 345.648 346.286 343.038 325.021 336.941 325.021 313.476 325.021 303.997 329.166 295.735 336.674 290.223 339.86 287.889 343.605 286.123 347.679 284.934L347.679 266.252 365.429 266.252 365.429 283.656C381.333 285.706 396.438 296.338 396.438 314.541L378.688 314.541C378.688 304.583 367.373 300.971 359.785 300.971 354.859 300.971 350.271 302.267 347.173 304.539 344.209 306.704 342.771 309.633 342.771 313.476M359.98 232.278 361.941 217.661C377.384 227.06 382.487 232.695 384.04 235.136 381.466 235.633 374.872 235.917 359.98 232.278M203.451 119.823C111.986 119.823 49.8251 98.0794 44.6599 82.2375L44.3936 80.1519C45.6006 64.2124 110.841 35.5018 203.451 35.5018 296.053 35.5018 361.311 64.2035 362.545 80.143L362.261 82.2286C357.122 98.0705 294.944 119.823 203.451 119.823M205.67 177.502 205.679 168.627 205.688 177.493C205.688 177.502 205.679 177.502 205.67 177.502M402.198 233.326C400.281 223.075 388.495 212.265 364.506 198.598L379.647 85.8496C379.691 85.6367 379.744 85.4414 379.771 85.2195L380.233 81.7671C380.286 81.3766 380.304 80.9862 380.304 80.5956 380.304 43.5603 287.107 17.7518 203.451 17.7518 119.813 17.7518 26.6259 43.5603 26.6259 80.5956 26.6259 80.9773 26.6525 81.3589 26.7058 81.7405L27.1495 85.1929C27.1495 85.2461 27.1673 85.2816 27.1761 85.3349L64.7174 364.463C65.88 397.14 150.21 409.343 203.496 409.343 232.739 409.343 262.257 406.273 286.672 400.69 296.719 398.338 305.452 395.685 312.632 392.809 315.525 391.664 318.179 390.502 320.646 389.339L313.12 373.267C310.928 374.296 308.585 375.317 306.038 376.337 299.692 378.876 291.811 381.254 282.67 383.402 259.559 388.682 231.443 391.593 203.496 391.593 128.183 391.593 82.4585 372.273 82.4585 363.779 82.4585 363.38 82.4319 362.989 82.3786 362.599L48.2809 109.084C80.4173 127.846 143.448 137.573 203.451 137.573 263.446 137.573 326.468 127.855 358.613 109.093L342.718 227.388C302.07 214.608 247.853 189.918 223.34 178.38 223.358 178.088 223.429 177.804 223.429 177.502 223.429 167.713 215.459 159.752 205.679 159.752 195.89 159.752 187.929 167.713 187.929 177.502 187.929 187.282 195.89 195.252 205.679 195.252 208.484 195.252 211.111 194.533 213.48 193.361 241.179 206.461 297.855 232.287 340.331 245.227L338.467 259.099 356.057 261.459 357.601 249.966C366.68 252.105 374.144 253.179 380.241 253.179 389.054 253.179 394.983 250.934 398.763 246.434 401.861 242.733 403.086 238.083 402.198 233.326" fill="#7AA116" fill-rule="evenodd" fill-opacity="1" transform="matrix(1 0 0 1.00235 0 208)"/></g></g></g></svg>