<svg width="427" height="428" xmlns="http://www.w3.org/2000/svg" xmlns:xlink="http://www.w3.org/1999/xlink" xml:space="preserve" overflow="hidden"><g transform="translate(-209 -88)"><g><g><g><g><path d="M561.672 408.5C559.231 408.5 557.234 406.503 557.234 404.062 557.234 401.622 559.231 399.625 561.672 399.625 564.112 399.625 566.109 401.622 566.109 404.062 566.109 406.503 564.112 408.5 561.672 408.5M561.672 381.875C549.433 381.875 539.484 391.824 539.484 404.062 539.484 416.301 549.433 426.25 561.672 426.25 573.911 426.25 583.859 416.301 583.859 404.062 583.859 391.824 573.911 381.875 561.672 381.875M560.163 472.329C544.916 448.615 526.482 415.414 526.482 401.578 526.482 381.538 541.588 365.234 560.163 365.234 578.739 365.234 593.844 381.538 593.844 401.578 593.844 415.414 575.41 448.615 560.163 472.329M560.163 347.484C531.807 347.484 508.733 371.749 508.733 401.578 508.733 428.531 548.333 486.848 552.85 493.407 554.51 495.812 557.243 497.25 560.163 497.25 563.083 497.25 565.816 495.812 567.476 493.407 571.993 486.848 611.594 428.531 611.594 401.578 611.594 371.749 588.519 347.484 560.163 347.484M412.962 124.5C505.298 124.5 570.36 153.104 571.559 168.982L571.337 170.721C571.133 171.466 570.707 172.239 570.254 173.011 570.094 173.268 570.014 173.517 569.837 173.783 569.304 174.537 568.568 175.301 567.805 176.081 567.529 176.357 567.343 176.632 567.032 176.907 566.189 177.688 565.142 178.469 564.077 179.25 563.695 179.525 563.367 179.809 562.959 180.102 561.796 180.892 560.421 181.691 559.036 182.489 558.566 182.764 558.157 183.04 557.669 183.306 556.125 184.14 554.403 184.965 552.619 185.791 552.14 186.03 551.714 186.252 551.199 186.474 549.211 187.379 547.01 188.267 544.738 189.146 544.357 189.288 544.028 189.438 543.629 189.589 541.011 190.574 538.215 191.551 535.269 192.491 535.171 192.527 535.082 192.562 534.976 192.598 507.108 201.508 464.775 208.475 413.007 208.475 338.217 208.475 283.086 193.911 262.824 179.978 261.289 178.921 259.975 177.874 258.848 176.827 258.697 176.694 258.608 176.561 258.466 176.428 257.526 175.522 256.718 174.617 256.097 173.747 255.937 173.499 255.857 173.259 255.706 173.02 255.245 172.247 254.828 171.484 254.615 170.739L254.393 168.99C255.6 153.113 320.645 124.5 412.962 124.5M593.027 323.504C590.453 324.001 583.877 324.258 569.065 320.646L571.017 306.136C586.469 315.508 591.492 321.055 593.027 323.504M515.238 464.288C508.981 466.791 501.135 469.169 491.95 471.335 468.902 476.598 440.874 479.5 413.007 479.5 337.933 479.5 292.342 460.259 292.342 451.801 292.342 451.402 292.316 451.011 292.271 450.621L258.289 197.905C260.33 199.085 262.504 200.239 264.776 201.349 266.188 202.032 267.705 202.689 269.196 203.346 270.474 203.913 271.743 204.473 273.075 205.005 274.761 205.697 276.483 206.372 278.258 207.02 279.456 207.464 280.698 207.889 281.932 208.298 288.677 210.632 295.981 212.726 303.755 214.608 304.758 214.856 305.752 215.096 306.773 215.318 309.373 215.93 312.009 216.498 314.698 217.057 315.373 217.191 316.065 217.324 316.757 217.466 325.863 219.276 335.404 220.803 345.264 222.045 345.85 222.125 346.418 222.205 346.995 222.276 360.893 223.989 375.297 225.143 389.825 225.737L391.121 225.79C398.407 226.074 405.711 226.27 412.962 226.27 420.133 226.27 427.331 226.074 434.529 225.808 435.203 225.773 435.878 225.746 436.561 225.719 446.962 225.285 457.293 224.557 467.437 223.554 468.058 223.483 468.689 223.43 469.319 223.376 472.318 223.057 475.274 222.72 478.229 222.356 479.392 222.223 480.563 222.063 481.726 221.921 484.601 221.548 487.459 221.175 490.272 220.749 490.654 220.696 491.018 220.625 491.4 220.572 496.893 219.738 502.254 218.806 507.49 217.803 508.963 217.501 510.445 217.226 511.892 216.933 514.12 216.463 516.303 215.992 518.46 215.495 520.119 215.114 521.734 214.723 523.35 214.333 525.338 213.836 527.343 213.365 529.278 212.842 532.393 211.999 535.446 211.129 538.384 210.206 539.946 209.727 541.41 209.203 542.91 208.697 544.694 208.094 546.46 207.49 548.173 206.851 549.629 206.31 551.049 205.76 552.433 205.2 554.19 204.49 555.877 203.763 557.527 203.017 558.672 202.493 559.852 201.997 560.944 201.473 563.305 200.328 565.55 199.148 567.645 197.923L551.812 315.765C511.351 303.047 457.435 278.508 432.931 266.979 432.94 266.819 432.984 266.669 432.984 266.5 432.984 256.711 425.023 248.75 415.234 248.75 405.445 248.75 397.484 256.711 397.484 266.5 397.484 276.289 405.445 284.25 415.234 284.25 418.216 284.25 420.977 283.442 423.453 282.138 451.258 295.273 507.339 320.771 549.415 333.604L549.114 335.832 565.586 338.059C575.117 340.349 582.936 341.538 589.238 341.538 598.033 341.538 603.952 339.302 607.724 334.811 610.831 331.11 612.055 326.468 611.168 321.711 609.251 311.487 597.5 300.704 573.582 287.072L588.678 174.644C588.723 174.449 588.776 174.236 588.803 174.031L589.246 170.579C589.3 170.197 589.326 169.807 589.326 169.434 589.326 132.488 496.387 106.75 412.962 106.75 329.564 106.75 236.625 132.488 236.625 169.434 236.625 169.807 236.652 170.197 236.705 170.579L237.158 174.031C237.166 174.138 237.193 174.236 237.211 174.342L274.601 452.484C275.764 485.082 359.863 497.25 413.007 497.25 442.161 497.25 471.608 494.188 495.961 488.624 506.061 486.245 514.776 483.6 521.752 480.805 524.344 479.793 526.775 478.71 528.95 477.707L521.486 461.599C519.622 462.469 517.545 463.401 515.238 464.288" fill="#7AA116" fill-rule="evenodd" fill-opacity="1"/></g></g></g></g></g></svg>