<svg width="428" height="428" xmlns="http://www.w3.org/2000/svg" xmlns:xlink="http://www.w3.org/1999/xlink" xml:space="preserve" overflow="hidden"><g transform="translate(-88 -37)"><g><g><g><g><path d="M479.426 400.888 492.004 413.466 460.869 444.602C459.134 446.337 456.857 447.208 454.579 447.208 452.302 447.208 450.025 446.337 448.29 444.602L417.155 413.466 429.733 400.888 445.684 416.838 445.684 327.462 429.733 343.412 417.155 330.833 448.29 299.698C451.768 296.219 457.391 296.219 460.869 299.698L492.004 330.833 479.426 343.412 463.475 327.462 463.475 416.838 479.426 400.888ZM291.448 73.5833C383.982 73.5833 449.189 102.246 450.416 118.169L450.185 119.931C449.98 120.642 449.571 121.381 449.144 122.119 448.966 122.413 448.868 122.706 448.664 123.009 448.174 123.711 447.463 124.441 446.76 125.161 446.44 125.491 446.208 125.811 445.853 126.14 445.07 126.852 444.091 127.572 443.122 128.293 442.65 128.64 442.268 128.995 441.752 129.351 440.693 130.072 439.439 130.792 438.193 131.513 437.597 131.86 437.073 132.216 436.432 132.563 435.062 133.301 433.496 134.039 431.94 134.778 431.255 135.098 430.667 135.427 429.947 135.739 428.194 136.521 426.255 137.295 424.307 138.069 423.631 138.327 423.026 138.603 422.323 138.87 420.081 139.715 417.653 140.533 415.162 141.352 414.637 141.53 414.157 141.708 413.623 141.877 410.679 142.811 407.565 143.736 404.309 144.617 404.167 144.661 404.024 144.706 403.891 144.741 376.243 152.249 337.608 157.765 291.483 157.765 216.616 157.765 161.391 143.202 141.028 129.245 140.832 129.102 140.699 128.978 140.503 128.844 139.204 127.919 138.003 127.003 137.016 126.078 136.74 125.837 136.562 125.588 136.322 125.33 135.53 124.548 134.783 123.765 134.241 122.991 134 122.653 133.885 122.324 133.698 121.977 133.315 121.301 132.924 120.624 132.737 119.966L132.497 118.169C133.733 102.246 198.931 73.5833 291.448 73.5833ZM471.926 273.055C469.347 273.553 462.781 273.82 447.917 270.199L449.882 255.645C465.352 265.048 470.387 270.599 471.926 273.055ZM370.603 421.233C347.554 426.508 319.452 429.417 291.483 429.417 216.233 429.417 170.544 410.13 170.544 401.653 170.544 401.252 170.518 400.861 170.473 400.47L136.402 147.17C138.475 148.371 140.69 149.536 143.012 150.666 144.275 151.28 145.645 151.867 146.97 152.454 148.429 153.103 149.888 153.753 151.427 154.366 152.984 154.998 154.568 155.621 156.204 156.226 157.637 156.75 159.113 157.249 160.599 157.765 164.157 158.974 167.858 160.131 171.701 161.216 172.706 161.492 173.64 161.794 174.654 162.061 176.843 162.657 179.111 163.209 181.38 163.76 182.714 164.081 184.031 164.41 185.383 164.712 187.749 165.264 190.142 165.78 192.579 166.287 193.727 166.518 194.883 166.74 196.04 166.963 204.589 168.644 213.529 170.076 222.745 171.26 223.822 171.393 224.889 171.535 225.965 171.66 228.963 172.025 231.97 172.38 235.004 172.692 235.671 172.754 236.338 172.816 237.005 172.879 246.96 173.866 257.11 174.587 267.322 175.023 268.345 175.067 269.377 175.111 270.4 175.147 273.594 175.272 276.796 175.369 279.99 175.432 280.435 175.441 280.879 175.441 281.306 175.45 284.696 175.512 288.085 175.592 291.448 175.592 294.704 175.592 297.986 175.512 301.26 175.458 301.856 175.441 302.452 175.441 303.066 175.432 306.144 175.369 309.195 175.272 312.273 175.156 313.509 175.111 314.728 175.058 315.956 175.005 318.989 174.88 322.005 174.729 325.021 174.56 325.706 174.515 326.373 174.462 327.058 174.418 332.92 174.044 338.738 173.572 344.502 173.021 345.792 172.888 347.073 172.781 348.354 172.647 351.032 172.372 353.674 172.06 356.325 171.74 357.917 171.553 359.483 171.349 361.049 171.144 363.593 170.815 366.155 170.477 368.655 170.112 370.229 169.872 371.75 169.614 373.307 169.365 377.426 168.706 381.456 168.004 385.432 167.239 387.256 166.892 389.079 166.545 390.868 166.18 392.914 165.753 394.933 165.317 396.935 164.863 398.811 164.428 400.662 163.983 402.486 163.529 404.309 163.084 406.133 162.648 407.894 162.168 411.106 161.305 414.237 160.416 417.261 159.464 418.694 159.019 420.046 158.539 421.434 158.067 423.346 157.427 425.241 156.777 427.074 156.092 428.461 155.576 429.831 155.042 431.157 154.509 433.007 153.77 434.76 152.996 436.503 152.223 437.58 151.724 438.709 151.253 439.741 150.755 442.116 149.607 444.376 148.424 446.484 147.187L430.632 265.306C390.094 252.568 336.025 227.953 311.454 216.397 311.463 216.237 311.508 216.086 311.508 215.917 311.508 206.105 303.528 198.125 293.716 198.125 283.904 198.125 275.924 206.105 275.924 215.917 275.924 225.729 283.904 233.708 293.716 233.708 296.705 233.708 299.472 232.899 301.954 231.591 329.842 244.766 386.082 270.341 428.23 283.187L427.056 291.896 444.696 294.244 445.532 287.928C454.606 290.063 462.061 291.14 468.137 291.14 476.953 291.14 482.886 288.889 486.658 284.388 489.771 280.678 490.999 276.026 490.109 271.258 488.188 261.019 476.41 250.201 452.444 236.546L467.567 123.854C467.621 123.649 467.665 123.453 467.692 123.249L468.146 119.788C468.199 119.397 468.226 119.005 468.226 118.623 468.226 81.5896 375.069 55.7917 291.448 55.7917 207.845 55.7917 114.688 81.5896 114.688 118.623 114.688 119.005 114.714 119.397 114.768 119.788L115.23 123.249C115.239 123.302 115.248 123.364 115.257 123.418L152.762 402.338C153.927 435.012 238.224 447.208 291.483 447.208 320.751 447.208 350.249 444.139 374.597 438.562 384.053 436.373 392.353 433.891 399.256 431.187L392.78 414.614C386.66 417.007 379.196 419.24 370.603 421.233Z" fill="#7AA116" fill-rule="evenodd" fill-opacity="1"/></g></g></g></g></g></svg>