<svg width="428" height="428" xmlns="http://www.w3.org/2000/svg" xmlns:xlink="http://www.w3.org/1999/xlink" xml:space="preserve" overflow="hidden"><g transform="translate(-488 -86)"><g><g><g><g><path d="M359.81 232.152 361.78 217.553C377.205 226.952 382.282 232.587 383.853 235.019 381.252 235.525 374.676 235.773 359.81 232.152ZM324.355 362.419C324.301 362.819 324.275 363.209 324.275 363.609 324.275 364.975 320.902 370.212 305.939 376.131 299.283 378.758 291.393 381.119 282.5 383.178 259.585 388.468 231.478 391.387 203.362 391.387 128.146 391.387 82.4754 372.093 82.4754 363.609 82.4754 363.209 82.4488 362.819 82.3955 362.419L48.2889 109.1C50.4899 110.378 52.8595 111.612 55.3356 112.81 56.0101 113.13 56.7379 113.431 57.4212 113.742 59.5956 114.745 61.8587 115.721 64.2106 116.662 65.178 117.043 66.1454 117.416 67.1305 117.798 69.651 118.739 72.2514 119.653 74.9316 120.531 75.6328 120.753 76.3072 121.011 77.035 121.232 80.4253 122.298 83.9486 123.309 87.5874 124.285 88.5281 124.525 89.5044 124.756 90.454 125.004 93.3118 125.723 96.205 126.424 99.1693 127.081 100.367 127.347 101.548 127.614 102.755 127.862 106.083 128.563 109.464 129.229 112.917 129.859 113.573 129.974 114.221 130.116 114.887 130.232 118.987 130.96 123.176 131.616 127.41 132.22 128.572 132.397 129.753 132.539 130.924 132.708 134.181 133.152 137.456 133.569 140.775 133.959 142.089 134.101 143.376 134.252 144.689 134.394 148.683 134.82 152.694 135.211 156.75 135.557 157.203 135.592 157.638 135.637 158.09 135.681 162.572 136.045 167.09 136.338 171.625 136.595 172.885 136.666 174.154 136.719 175.423 136.79 178.849 136.95 182.293 137.092 185.736 137.208 187.067 137.252 188.39 137.296 189.712 137.323 194.274 137.438 198.818 137.509 203.362 137.509 207.906 137.509 212.459 137.438 217.02 137.323 218.343 137.296 219.665 137.252 220.988 137.208 224.44 137.092 227.875 136.95 231.309 136.79 232.578 136.719 233.839 136.666 235.099 136.595 239.634 136.338 244.16 136.045 248.651 135.681 249.077 135.646 249.503 135.592 249.938 135.557 254.011 135.219 258.049 134.82 262.052 134.385 263.357 134.252 264.635 134.101 265.931 133.959 269.276 133.569 272.578 133.152 275.853 132.699 277.007 132.539 278.16 132.397 279.305 132.229 283.556 131.616 287.763 130.951 291.881 130.232 292.493 130.116 293.079 129.992 293.7 129.886 297.206 129.247 300.658 128.563 304.04 127.853 305.202 127.614 306.356 127.347 307.501 127.099 310.536 126.424 313.501 125.714 316.403 124.978 317.299 124.738 318.213 124.525 319.101 124.294 322.775 123.318 326.343 122.298 329.768 121.215 330.416 121.011 331.02 120.789 331.65 120.585 334.428 119.679 337.108 118.747 339.691 117.762 340.631 117.416 341.546 117.052 342.469 116.688 344.891 115.721 347.234 114.727 349.48 113.68 350.092 113.396 350.758 113.121 351.37 112.828 353.864 111.63 356.251 110.387 358.47 109.1L342.557 227.262C301.99 214.527 247.888 189.881 223.33 178.343 223.304 168.581 215.361 160.637 205.589 160.637 195.809 160.637 187.839 168.607 187.839 178.387 187.839 188.177 195.809 196.137 205.589 196.137 208.784 196.137 211.749 195.223 214.349 193.732 242.394 206.965 298.236 232.33 340.152 245.101L324.355 362.419ZM203.362 35.5C295.928 35.5 361.142 64.1751 362.366 80.1058L362.127 81.9606C361.967 82.4931 361.621 83.0434 361.346 83.6025 361.097 84.064 360.92 84.5344 360.582 85.0136 360.183 85.5639 359.624 86.1319 359.109 86.6821 358.656 87.1702 358.275 87.6584 357.742 88.1465 357.112 88.7145 356.313 89.2914 355.568 89.8683 354.929 90.3564 354.361 90.8445 353.633 91.3504 352.764 91.9272 351.734 92.513 350.749 93.0987 349.941 93.5869 349.196 94.0661 348.29 94.5543 347.181 95.1489 345.903 95.7524 344.669 96.347 343.72 96.8085 342.823 97.2878 341.785 97.7404 340.418 98.3527 338.901 98.9474 337.427 99.5509 336.318 99.9857 335.289 100.438 334.108 100.882 332.528 101.468 330.771 102.054 329.067 102.631 327.825 103.057 326.644 103.491 325.34 103.917 323.52 104.485 321.541 105.045 319.624 105.595 318.24 105.994 316.935 106.411 315.497 106.793 313.483 107.343 311.299 107.858 309.161 108.382 307.643 108.754 306.205 109.145 304.626 109.5 302.362 110.014 299.948 110.494 297.57 110.982 295.972 111.31 294.446 111.656 292.786 111.967 290.266 112.455 287.577 112.89 284.932 113.325 283.281 113.618 281.701 113.92 280.006 114.177 277.29 114.603 274.424 114.967 271.602 115.348 269.818 115.588 268.123 115.854 266.303 116.076 263.348 116.44 260.242 116.742 257.18 117.052 255.36 117.239 253.612 117.452 251.757 117.629 248.686 117.904 245.465 118.108 242.296 118.339 240.299 118.481 238.391 118.668 236.368 118.792 232.987 118.987 229.472 119.111 226.002 119.244 224.058 119.324 222.194 119.449 220.224 119.511 214.722 119.671 209.104 119.759 203.362 119.759 197.628 119.759 192.002 119.671 186.499 119.511 184.538 119.449 182.683 119.324 180.748 119.253 177.269 119.111 173.746 118.987 170.364 118.792 168.368 118.668 166.477 118.481 164.507 118.348 161.312 118.108 158.073 117.904 154.975 117.629 153.165 117.461 151.461 117.248 149.686 117.061 146.58 116.742 143.429 116.449 140.429 116.076 138.672 115.854 137.012 115.597 135.29 115.375 132.415 114.985 129.495 114.612 126.726 114.177 125.102 113.928 123.584 113.635 121.996 113.36 119.271 112.908 116.529 112.464 113.937 111.967 112.375 111.674 110.946 111.346 109.438 111.044 106.97 110.529 104.459 110.032 102.098 109.5 100.625 109.162 99.2846 108.799 97.8469 108.452 95.6104 107.902 93.3472 107.361 91.2261 106.793 89.8771 106.429 88.6612 106.038 87.3832 105.666 85.3509 105.089 83.2919 104.503 81.3926 103.909 80.1679 103.518 79.0851 103.11 77.9136 102.719 76.1209 102.107 74.2749 101.494 72.6152 100.873 71.5236 100.465 70.574 100.039 69.5445 99.6219 67.9825 99.0006 66.3761 98.3794 64.9473 97.7404 63.9799 97.3055 63.1456 96.8617 62.2492 96.4269 60.9446 95.8056 59.6045 95.1755 58.4419 94.5454 57.5987 94.0839 56.9065 93.6401 56.1344 93.1786 55.1049 92.5574 54.0132 91.945 53.108 91.3326 52.4158 90.8623 51.8833 90.3919 51.262 89.9304 50.4899 89.3269 49.6645 88.7323 49.0077 88.1376 48.4841 87.6673 48.1203 87.1969 47.6854 86.7176 47.1529 86.1496 46.576 85.5728 46.1766 85.0136 45.8394 84.5344 45.6707 84.0729 45.4311 83.6114 45.1382 83.0522 44.7921 82.502 44.6324 81.9606L44.3927 80.1058C45.6264 64.1751 110.822 35.5 203.362 35.5ZM402.011 233.208C400.094 222.967 388.317 212.148 364.345 198.507L379.593 85.2 379.593 85.1911 379.593 85.1822 380.054 81.7299C380.107 81.3394 380.134 80.9489 380.134 80.5584 380.134 43.5408 286.973 17.75 203.362 17.75 119.768 17.75 26.625 43.5408 26.625 80.5584 26.625 80.9489 26.6516 81.3394 26.7049 81.7299L27.1664 85.1822 27.1664 85.1911 27.1664 85.2 64.7343 364.292C65.8969 396.943 150.13 409.137 203.362 409.137 232.782 409.137 262.31 406.067 286.494 400.475 296.247 398.221 304.972 395.585 312.453 392.639 331.685 385.033 341.625 375.483 342.016 364.292L357.423 249.84C366.52 251.979 373.992 253.062 380.081 253.062 388.876 253.062 394.796 250.825 398.567 246.326 401.682 242.625 402.898 237.965 402.011 233.208Z" fill="#7AA116" fill-rule="evenodd" fill-opacity="1" transform="matrix(1 0 0 1.00235 489 87)"/></g></g></g></g></g></svg>